<svg width="700" height="477" viewBox="0 0 700 477" fill="none" xmlns="http://www.w3.org/2000/svg">
<path opacity="0.1" d="M1.33281 227.883H66.3651V317.706H6.09378C5.93358 318.628 5.7798 319.557 5.6132 320.485H66.3651V392.925C66.2562 392.893 66.1601 392.854 66.0576 392.815C64.3403 392.126 62.6358 391.399 60.9314 390.62L59.842 390.12C58.1333 389.302 56.4246 388.436 54.7158 387.523C54.1199 387.204 53.524 386.873 52.9345 386.536C43.4483 381.151 34.8307 374.328 27.3803 366.302C27.1625 366.088 26.9574 365.861 26.7396 365.653C25.7015 364.51 24.6827 363.354 23.6959 362.173L22.6066 360.874C21.4404 359.426 20.3126 357.939 19.2169 356.432C19.0567 356.212 18.9029 355.991 18.7363 355.783C14.28 349.522 10.5799 342.742 7.71494 335.589C7.62523 335.374 7.54834 335.141 7.46504 334.939C6.58504 332.645 5.80543 330.329 5.12621 327.991C4.83145 327.011 4.54951 326.043 4.30601 325.024C4.2163 324.725 4.13941 324.433 4.06892 324.141C0.429319 309.745 0 294.791 0 279.94C0 278.207 0 276.466 0 274.746C0 268.739 0.0704856 262.694 0.17301 256.655C0.17301 255.09 0.237086 253.532 0.269125 251.96C0.358833 247.974 0.48699 243.987 0.653592 240C0.692038 238.889 0.7433 237.785 0.80097 236.682C0.80097 236.045 0.833009 235.409 0.897087 234.773C1.05087 232.461 1.17903 230.169 1.33281 227.883Z" fill="#053C61"/>
<path opacity="0.1" d="M64.5551 125.647H28.8831C34.6818 116.449 41.0175 107.611 47.8565 99.1799C53.1557 92.5826 58.7497 86.1541 64.5551 79.9595V125.647Z" fill="#053C61"/>
<path opacity="0.1" d="M64.9938 129.59V224.042H0.166504C0.166504 223.769 0.211357 223.49 0.23058 223.218C0.28825 222.471 0.345919 221.724 0.409997 220.984C0.480482 220.114 0.557376 219.237 0.640676 218.386C0.723977 217.536 0.813687 216.497 0.909803 215.555C1.00592 214.614 1.09563 213.659 1.20456 212.718C1.31349 211.776 1.40961 210.835 1.52495 209.9C1.64029 208.965 1.74281 208.017 1.86456 207.082C1.96068 206.302 2.0632 205.53 2.16572 204.75C2.3131 203.653 2.46689 202.549 2.63349 201.458C2.63349 201.296 2.67834 201.127 2.70397 200.971C3.87351 192.985 5.46708 185.069 7.47775 177.257C9.58244 169.063 12.27 161.033 15.5195 153.232C18.973 145.071 23.0167 137.18 27.6173 129.622L64.9938 129.59Z" fill="#053C61"/>
<path opacity="0.1" d="M81.3632 227.875V317.705H220.264V227.875H81.3632ZM81.3632 320.477V397.619C82.1578 397.787 82.9459 397.95 83.7277 398.086C84.7914 398.294 85.8487 398.482 86.9316 398.644C87.1366 398.677 87.3481 398.709 87.5723 398.729C87.9952 398.8 88.431 398.859 88.8539 398.917C89.924 399.067 90.9877 399.19 92.0578 399.287C92.564 399.339 93.0766 399.385 93.5892 399.424L94.8259 399.521C95.4987 399.573 96.1651 399.612 96.8251 399.631C97.2352 399.631 97.6453 399.67 98.0682 399.683C98.3886 399.683 98.709 399.683 99.0422 399.683C99.3754 399.683 99.8496 399.683 100.253 399.683C100.804 399.683 101.355 399.683 101.9 399.683H102.637C103.188 399.683 103.739 399.683 104.284 399.631H104.322C104.7 399.631 105.085 399.631 105.469 399.58C105.576 399.586 105.683 399.586 105.79 399.58C106.11 399.58 106.43 399.58 106.738 399.534H106.962L109.109 399.365C109.814 399.3 110.525 399.216 111.243 399.138L112.704 398.963C118.647 398.119 124.525 396.852 130.293 395.171C143.249 391.508 155.924 386.385 168.874 382.632C185.617 377.794 204.117 375.418 220.296 381.333V320.477H81.3632ZM220.264 127.871V8.28235C205.057 8.11539 189.891 9.91782 175.134 13.6459C139.962 22.6002 108.404 42.0219 81.3632 66.8266V127.864H88.3349V130.637H81.3632V225.103H220.264V130.643H116.958V127.871H220.264ZM398.675 87.4755C389.974 87.1639 381.323 84.3717 373.499 80.0601C358.537 71.8135 346.587 59.08 333.233 48.3335C305.487 25.9508 271.078 12.4446 235.777 9.09402V127.871H434.065L434.559 127.345L398.675 87.4755ZM416.739 84.2289L435.892 105.527V78.6445C429.477 79.4497 423.858 81.3653 416.764 84.2029L416.739 84.2289ZM435.892 416.774V320.477H395.081C394.972 320.068 394.863 319.653 394.735 319.237C394.856 319.653 394.959 320.068 395.074 320.477H235.803V390.119C237.315 391.255 238.808 392.45 240.288 393.664C241.884 394.963 243.46 396.333 245.043 397.677L246.638 399.015C247.401 399.664 248.17 400.313 248.945 400.924C250.483 402.188 252.036 403.434 253.604 404.664C254.379 405.313 255.174 405.898 255.962 406.508C268.474 416.202 281.674 424.951 295.453 432.683C298.541 434.414 301.658 436.105 304.802 437.754C306.897 438.838 309.005 439.916 311.12 440.962C314.298 442.533 317.502 444.048 320.731 445.507C350.506 459.051 381.99 468.345 414.285 473.123C421.457 474.197 428.657 475.041 435.885 475.656V416.767H436.526L435.892 416.774ZM235.803 130.643V225.103H435.917V130.643H235.803ZM235.803 227.875V317.705H435.917V227.875H235.803ZM451.45 78.5277V108.514L475.895 81.3328C467.796 80.0082 459.647 79.0623 451.45 78.4952V78.5277ZM451.45 227.908V317.705H646.085V227.875L451.45 227.908ZM645.374 423.904L646.06 320.477H451.45V476.688C463.986 477.222 476.542 477.07 489.063 476.234V476.234H489.281C495.262 475.853 501.214 475.299 507.139 474.571H507.274C538.884 470.843 569.792 462.486 599.033 449.76L645.374 423.904ZM683.615 242.667C682.885 240.92 682.122 239.187 681.347 237.472C679.899 234.226 678.367 231.07 676.791 227.914H661.605V317.705H700C699.981 292.277 693.631 266.303 683.635 242.635L683.615 242.667ZM661.605 320.51V409.469C672.421 398.963 681.559 386.943 688.139 373.203C696.053 356.658 699.673 338.743 699.968 320.497L661.605 320.51ZM661.605 201.733V225.109H675.369C671.205 217.062 666.617 209.248 661.624 201.7L661.605 201.733ZM529.605 96.1507C528.593 95.7611 527.58 95.365 526.561 94.9819C515.816 90.9607 504.836 87.6167 493.683 84.9691L456.275 126.572L455.557 127.345L456.038 127.877H589.178C570.635 114.943 550.644 104.282 529.624 96.1182L529.605 96.1507ZM593.08 130.676H454.179L451.45 133.208V225.103H475.376H475.415H646.111V180.591C630.67 161.666 612.847 144.874 593.099 130.643L593.08 130.676Z" fill="#053C61"/>
<path opacity="0.1" d="M64.9382 182.896L65.0023 228.882H0.175078C0.155854 229.155 0.175078 228.609 0.175078 228.882C0.232747 228.135 0.290388 227.389 0.354466 226.648C0.424951 225.778 0.501845 224.902 0.585145 224.051C0.668446 223.2 0.758156 222.161 0.854272 221.22C0.950389 220.278 1.0401 219.324 1.14903 218.382C1.25796 217.441 1.35408 216.499 1.46942 215.564C1.58476 214.629 1.68728 213.681 1.80903 212.746C1.90515 211.967 2.00767 211.194 2.11019 210.415C2.25757 209.318 2.41136 208.214 2.57796 207.123C2.57796 206.96 2.62281 206.792 2.64844 206.636C3.81798 198.65 5.41155 190.734 7.42222 182.922L64.9382 182.896Z" fill="#CCD4DA"/>
<path opacity="0.1" d="M454.574 0H519.192V169.067H459.305C459.146 170.803 458.993 172.551 458.828 174.298H519.192V310.647C519.084 310.586 518.988 310.513 518.886 310.44C517.18 309.144 515.486 307.775 513.793 306.309L512.71 305.367C511.013 303.827 509.315 302.198 507.617 300.479C507.025 299.88 506.433 299.256 505.847 298.621C496.421 288.485 487.859 275.642 480.456 260.537C480.239 260.134 480.036 259.706 479.819 259.315C478.788 257.164 477.775 254.988 476.795 252.764L475.712 250.319C474.554 247.594 473.433 244.795 472.344 241.96C472.185 241.544 472.032 241.128 471.867 240.737C467.439 228.952 463.762 216.191 460.916 202.727C460.827 202.324 460.75 201.884 460.668 201.505C459.793 197.186 459.019 192.827 458.344 188.427C458.051 186.582 457.771 184.76 457.529 182.842C457.44 182.279 457.363 181.729 457.293 181.179C453.677 154.083 453.25 125.936 453.25 97.984C453.25 94.7207 453.25 91.4452 453.25 88.2064C453.25 76.901 453.32 65.5223 453.422 54.1558C453.422 51.2103 453.486 48.277 453.518 45.3193C453.607 37.815 453.734 30.3106 453.9 22.8063C453.938 20.7163 453.989 18.6386 454.046 16.5609C454.046 15.3631 454.078 14.1654 454.141 12.9676C454.294 8.61655 454.422 4.30215 454.574 0Z" fill="#FAFAFA"/>
<path opacity="0.1" d="M3.10126 195.131V205.695H65.4679V195.131H3.10126ZM9.31678 205.033H4.22902V195.78H9.35523L9.31678 205.033ZM15.5259 205.033H10.3997V195.78H15.5259V205.033ZM21.7222 205.033H16.596V195.78H21.7222V205.033ZM27.9313 205.033H22.8115V195.78H27.9377L27.9313 205.033ZM34.134 205.033H29.0078V195.78H34.134V205.033ZM40.3431 205.033H35.2169V195.78H40.3431V205.033ZM46.5522 205.033H41.426V195.78H46.5522V205.033ZM52.755 205.033H47.6287V195.78H52.755V205.033ZM58.9577 205.033H53.8315V195.78H58.9577V205.033ZM65.1604 205.033H60.0342V195.78H65.1604V205.033Z" fill="#E3EAEF"/>
<path opacity="0.1" d="M3.35736 227.012V237.576H65.7241V227.012H3.35736ZM9.57289 236.907H4.48513V227.68H9.61133L9.57289 236.907ZM15.782 236.907H10.6558V227.68H15.782V236.907ZM21.9783 236.907H16.8521V227.68H21.9783V236.907ZM28.1874 236.907H23.0676V227.68H28.1938L28.1874 236.907ZM34.3901 236.907H29.2639V227.68H34.3901V236.907ZM40.5992 236.907H35.473V227.68H40.5992V236.907ZM46.8084 236.907H41.6821V227.68H46.8084V236.907ZM53.0111 236.907H47.8849V227.68H53.0111V236.907ZM59.2138 236.907H54.0876V227.68H59.2138V236.907ZM65.4165 236.907H60.2903V227.68H65.4165V236.907Z" fill="#053C61"/>
</svg>
