<svg width="1319" height="637" viewBox="0 0 1319 637" fill="none" xmlns="http://www.w3.org/2000/svg">
<path opacity="0.1" d="M1.33281 356.883H66.3651V446.706H6.09378C5.93358 447.628 5.7798 448.557 5.6132 449.485H66.3651V521.925C66.2562 521.893 66.1601 521.854 66.0576 521.815C64.3403 521.126 62.6358 520.399 60.9314 519.62L59.842 519.12C58.1333 518.302 56.4246 517.436 54.7158 516.523C54.1199 516.204 53.524 515.873 52.9345 515.536C43.4483 510.151 34.8307 503.328 27.3803 495.302C27.1625 495.088 26.9574 494.861 26.7396 494.653C25.7015 493.51 24.6827 492.354 23.6959 491.173L22.6066 489.874C21.4404 488.426 20.3126 486.939 19.2169 485.432C19.0567 485.212 18.9029 484.991 18.7363 484.783C14.28 478.522 10.5799 471.742 7.71494 464.589C7.62523 464.374 7.54834 464.141 7.46504 463.939C6.58504 461.645 5.80543 459.329 5.12621 456.991C4.83145 456.011 4.54951 455.043 4.30601 454.024C4.2163 453.725 4.13941 453.433 4.06892 453.141C0.429319 438.745 0 423.791 0 408.94C0 407.207 0 405.466 0 403.746C0 397.739 0.0704856 391.694 0.17301 385.655C0.17301 384.09 0.237086 382.532 0.269125 380.96C0.358833 376.974 0.48699 372.987 0.653592 369C0.692038 367.889 0.7433 366.785 0.80097 365.682C0.80097 365.045 0.833009 364.409 0.897087 363.773C1.05087 361.461 1.17903 359.169 1.33281 356.883Z" fill="#053C61"/>
<path opacity="0.1" d="M64.5551 254.647H28.8831C34.6818 245.45 41.0175 236.611 47.8565 228.18C53.1557 221.583 58.7497 215.154 64.5551 208.96V254.647Z" fill="#053C61"/>
<path opacity="0.1" d="M64.9938 258.59V353.042H0.166504C0.166504 352.769 0.211357 352.49 0.23058 352.218C0.28825 351.471 0.345919 350.724 0.409997 349.984C0.480482 349.114 0.557376 348.237 0.640676 347.386C0.723977 346.536 0.813687 345.497 0.909803 344.555C1.00592 343.614 1.09563 342.659 1.20456 341.718C1.31349 340.776 1.40961 339.835 1.52495 338.9C1.64029 337.965 1.74281 337.017 1.86456 336.081C1.96068 335.302 2.0632 334.53 2.16572 333.75C2.3131 332.653 2.46689 331.549 2.63349 330.458C2.63349 330.296 2.67834 330.127 2.70397 329.971C3.87351 321.985 5.46708 314.069 7.47775 306.257C9.58244 298.063 12.27 290.033 15.5195 282.232C18.973 274.071 23.0167 266.179 27.6173 258.622L64.9938 258.59Z" fill="#053C61"/>
<path opacity="0.1" d="M81.3632 356.875V446.704H220.264V356.875H81.3632ZM81.3632 449.477V526.618C82.1578 526.787 82.9459 526.95 83.7277 527.086C84.7914 527.294 85.8487 527.482 86.9316 527.644C87.1366 527.677 87.3481 527.709 87.5723 527.729C87.9952 527.8 88.431 527.859 88.8539 527.917C89.924 528.066 90.9877 528.19 92.0578 528.287C92.564 528.339 93.0766 528.385 93.5892 528.424L94.8259 528.521C95.4987 528.573 96.1651 528.612 96.8251 528.631C97.2352 528.631 97.6453 528.67 98.0682 528.683C98.3886 528.683 98.709 528.683 99.0422 528.683C99.3754 528.683 99.8496 528.683 100.253 528.683C100.804 528.683 101.355 528.683 101.9 528.683H102.637C103.188 528.683 103.739 528.683 104.284 528.631H104.322C104.7 528.631 105.085 528.631 105.469 528.579C105.576 528.586 105.683 528.586 105.79 528.579C106.11 528.579 106.43 528.579 106.738 528.534H106.962L109.109 528.365C109.814 528.3 110.525 528.216 111.243 528.138L112.704 527.963C118.647 527.119 124.525 525.851 130.293 524.17C143.249 520.508 155.924 515.385 168.874 511.632C185.617 506.794 204.117 504.418 220.296 510.333V449.477H81.3632ZM220.264 256.871V137.282C205.057 137.115 189.891 138.918 175.134 142.646C139.962 151.6 108.404 171.022 81.3632 195.827V256.864H88.3349V259.637H81.3632V354.103H220.264V259.643H116.958V256.871H220.264ZM398.675 216.475C389.974 216.164 381.323 213.372 373.499 209.06C358.537 200.813 346.587 188.08 333.233 177.333C305.487 154.951 271.078 141.445 235.777 138.094V256.871H434.065L434.559 256.345L398.675 216.475ZM416.739 213.229L435.892 234.527V207.644C429.477 208.45 423.858 210.365 416.764 213.203L416.739 213.229ZM435.892 545.774V449.477H395.081C394.972 449.068 394.863 448.653 394.735 448.237C394.856 448.653 394.959 449.068 395.074 449.477H235.803V519.119C237.315 520.255 238.808 521.45 240.288 522.664C241.884 523.963 243.46 525.333 245.043 526.677L246.638 528.015C247.401 528.664 248.17 529.313 248.945 529.924C250.483 531.188 252.036 532.434 253.604 533.664C254.379 534.313 255.174 534.898 255.962 535.508C268.474 545.202 281.674 553.951 295.453 561.683C298.541 563.414 301.658 565.105 304.802 566.754C306.897 567.838 309.005 568.916 311.12 569.962C314.298 571.533 317.502 573.048 320.731 574.507C350.506 588.051 381.99 597.345 414.285 602.123C421.457 603.197 428.657 604.041 435.885 604.656V545.767H436.526L435.892 545.774ZM235.803 259.643V354.103H435.917V259.643H235.803ZM235.803 356.875V446.704H435.917V356.875H235.803ZM451.45 207.528V237.514L475.895 210.333C467.796 209.008 459.647 208.062 451.45 207.495V207.528ZM451.45 356.908V446.704H646.085V356.875L451.45 356.908ZM645.374 552.904L646.06 449.477H451.45V605.688C463.986 606.222 476.542 606.07 489.063 605.234V605.234H489.281C495.262 604.853 501.214 604.299 507.139 603.571H507.274C538.884 599.843 569.792 591.486 599.033 578.76L645.374 552.904ZM683.615 371.667C682.885 369.92 682.122 368.187 681.347 366.472C679.899 363.226 678.367 360.07 676.791 356.914H661.605V446.704H700C699.981 421.276 693.631 395.303 683.635 371.635L683.615 371.667ZM661.605 449.51V538.469C672.421 527.963 681.559 515.943 688.139 502.203C696.053 485.658 699.673 467.743 699.968 449.497L661.605 449.51ZM661.605 330.733V354.109H675.369C671.205 346.062 666.617 338.248 661.624 330.7L661.605 330.733ZM529.605 225.151C528.593 224.761 527.58 224.365 526.561 223.982C515.816 219.961 504.836 216.617 493.683 213.969L456.275 255.572L455.557 256.345L456.038 256.877H589.178C570.635 243.943 550.644 233.282 529.624 225.118L529.605 225.151ZM593.08 259.676H454.179L451.45 262.208V354.103H475.376H475.415H646.111V309.59C630.67 290.666 612.847 273.874 593.099 259.643L593.08 259.676Z" fill="#053C61"/>
<path opacity="0.1" d="M64.9382 311.896L65.0023 357.882H0.175078C0.155854 358.155 0.175078 357.609 0.175078 357.882C0.232747 357.135 0.290388 356.389 0.354466 355.648C0.424951 354.778 0.501845 353.902 0.585145 353.051C0.668446 352.2 0.758156 351.161 0.854272 350.22C0.950389 349.278 1.0401 348.324 1.14903 347.382C1.25796 346.441 1.35408 345.499 1.46942 344.564C1.58476 343.629 1.68728 342.681 1.80903 341.746C1.90515 340.967 2.00767 340.194 2.11019 339.415C2.25757 338.317 2.41136 337.214 2.57796 336.123C2.57796 335.96 2.62281 335.792 2.64844 335.636C3.81798 327.65 5.41155 319.734 7.42222 311.922L64.9382 311.896Z" fill="#CCD4DA"/>
<path opacity="0.1" d="M454.574 129H519.192V298.067H459.305C459.146 299.803 458.993 301.551 458.828 303.298H519.192V439.647C519.084 439.586 518.988 439.513 518.886 439.44C517.18 438.144 515.486 436.775 513.793 435.309L512.71 434.367C511.013 432.827 509.315 431.198 507.617 429.479C507.025 428.88 506.433 428.256 505.847 427.621C496.421 417.485 487.859 404.642 480.456 389.537C480.239 389.134 480.036 388.706 479.819 388.315C478.788 386.164 477.775 383.988 476.795 381.764L475.712 379.319C474.554 376.594 473.433 373.795 472.344 370.96C472.185 370.544 472.032 370.128 471.867 369.737C467.439 357.952 463.762 345.191 460.916 331.727C460.827 331.324 460.75 330.884 460.668 330.505C459.793 326.186 459.019 321.827 458.344 317.427C458.051 315.582 457.771 313.76 457.529 311.842C457.44 311.279 457.363 310.729 457.293 310.179C453.677 283.083 453.25 254.936 453.25 226.984C453.25 223.721 453.25 220.445 453.25 217.206C453.25 205.901 453.32 194.522 453.422 183.156C453.422 180.21 453.486 177.277 453.518 174.319C453.607 166.815 453.734 159.311 453.9 151.806C453.938 149.716 453.989 147.639 454.046 145.561C454.046 144.363 454.078 143.165 454.141 141.968C454.294 137.617 454.422 133.302 454.574 129Z" fill="#FAFAFA"/>
<path opacity="0.1" d="M3.10126 324.131V334.695H65.4679V324.131H3.10126ZM9.31678 334.033H4.22902V324.78H9.35523L9.31678 334.033ZM15.5259 334.033H10.3997V324.78H15.5259V334.033ZM21.7222 334.033H16.596V324.78H21.7222V334.033ZM27.9313 334.033H22.8115V324.78H27.9377L27.9313 334.033ZM34.134 334.033H29.0078V324.78H34.134V334.033ZM40.3431 334.033H35.2169V324.78H40.3431V334.033ZM46.5523 334.033H41.426V324.78H46.5523V334.033ZM52.755 334.033H47.6287V324.78H52.755V334.033ZM58.9577 334.033H53.8315V324.78H58.9577V334.033ZM65.1604 334.033H60.0342V324.78H65.1604V334.033Z" fill="#E3EAEF"/>
<path opacity="0.1" d="M3.35736 356.012V366.576H65.7241V356.012H3.35736ZM9.57289 365.907H4.48513V356.68H9.61133L9.57289 365.907ZM15.782 365.907H10.6558V356.68H15.782V365.907ZM21.9783 365.907H16.8521V356.68H21.9783V365.907ZM28.1874 365.907H23.0676V356.68H28.1938L28.1874 365.907ZM34.3901 365.907H29.2639V356.68H34.3901V365.907ZM40.5992 365.907H35.473V356.68H40.5992V365.907ZM46.8084 365.907H41.6821V356.68H46.8084V365.907ZM53.0111 365.907H47.8849V356.68H53.0111V365.907ZM59.2138 365.907H54.0876V356.68H59.2138V365.907ZM65.4165 365.907H60.2903V356.68H65.4165V365.907Z" fill="#053C61"/>
<path opacity="0.1" d="M672.592 347.669H750.259V451.992H678.278C678.086 453.063 677.903 454.141 677.704 455.22H750.259V539.353C750.129 539.316 750.014 539.27 749.892 539.225C747.841 538.426 745.805 537.581 743.769 536.676L742.468 536.095C740.428 535.145 738.387 534.14 736.346 533.079C735.635 532.709 734.923 532.325 734.219 531.932C722.89 525.678 712.598 517.754 703.7 508.433C703.44 508.184 703.195 507.92 702.935 507.679C701.695 506.351 700.478 505.009 699.3 503.636L697.999 502.128C696.606 500.446 695.259 498.719 693.95 496.97C693.759 496.713 693.575 496.457 693.376 496.215C688.054 488.943 683.635 481.069 680.214 472.761C680.107 472.512 680.015 472.241 679.915 472.007C678.864 469.342 677.933 466.653 677.122 463.938C676.77 462.799 676.433 461.675 676.143 460.491C676.035 460.144 675.944 459.805 675.859 459.465C671.513 442.746 671 425.378 671 408.13C671 406.116 671 404.095 671 402.097C671 395.121 671.084 388.1 671.207 381.086C671.207 379.268 671.283 377.458 671.321 375.633C671.429 371.003 671.582 366.372 671.781 361.742C671.826 360.452 671.888 359.17 671.957 357.888C671.957 357.149 671.995 356.41 672.071 355.671C672.255 352.986 672.408 350.324 672.592 347.669Z" fill="#053C61"/>
<path opacity="0.1" d="M748.097 228.929H705.495C712.42 218.247 719.987 207.983 728.154 198.19C734.483 190.528 741.164 183.062 748.097 175.867V228.929Z" fill="#053C61"/>
<path opacity="0.1" d="M748.621 233.509V343.208H671.199C671.199 342.892 671.252 342.567 671.275 342.251C671.344 341.383 671.413 340.516 671.49 339.656C671.574 338.646 671.666 337.628 671.765 336.64C671.865 335.652 671.972 334.445 672.087 333.352C672.201 332.258 672.308 331.149 672.439 330.056C672.569 328.962 672.683 327.869 672.821 326.783C672.959 325.697 673.081 324.596 673.227 323.51C673.342 322.605 673.464 321.707 673.586 320.802C673.763 319.528 673.946 318.246 674.145 316.979C674.145 316.79 674.199 316.594 674.229 316.413C675.626 307.138 677.529 297.944 679.931 288.871C682.444 279.354 685.654 270.028 689.535 260.967C693.659 251.489 698.488 242.324 703.983 233.546L748.621 233.509Z" fill="#053C61"/>
<path opacity="0.1" d="M768.171 347.66V451.99H934.058V347.66H768.171ZM768.171 455.21V544.804C769.12 545 770.061 545.189 770.995 545.347C772.265 545.589 773.528 545.807 774.821 545.996C775.066 546.034 775.319 546.071 775.586 546.094C776.092 546.177 776.612 546.245 777.117 546.313C778.395 546.486 779.665 546.629 780.943 546.742C781.548 546.803 782.16 546.856 782.772 546.901L784.249 547.014C785.053 547.074 785.849 547.12 786.637 547.142C787.127 547.142 787.617 547.187 788.122 547.202C788.504 547.202 788.887 547.202 789.285 547.202C789.683 547.202 790.249 547.202 790.731 547.202C791.389 547.202 792.047 547.202 792.698 547.202H793.578C794.236 547.202 794.894 547.202 795.545 547.142H795.591C796.042 547.142 796.501 547.142 796.96 547.082C797.088 547.089 797.216 547.089 797.343 547.082C797.726 547.082 798.108 547.082 798.476 547.029H798.744L801.307 546.833C802.149 546.758 802.998 546.659 803.856 546.569L805.6 546.365C812.699 545.385 819.718 543.913 826.607 541.961C842.081 537.708 857.218 531.757 872.684 527.398C892.68 521.78 914.774 519.02 934.097 525.89V455.21H768.171ZM934.058 231.512V92.6193C915.897 92.4254 897.784 94.5187 880.161 98.8486C838.155 109.248 800.465 131.805 768.171 160.614V231.505H776.497V234.725H768.171V344.44H934.058V234.733H810.682V231.512H934.058ZM1147.13 184.596C1136.74 184.234 1126.41 180.991 1117.06 175.984C1099.2 166.406 1084.92 151.617 1068.98 139.136C1035.84 113.14 994.744 97.4534 952.586 93.562V231.512H1189.4L1189.99 230.901L1147.13 184.596ZM1168.71 180.825L1191.58 205.562V174.34C1183.92 175.275 1177.21 177.5 1168.74 180.795L1168.71 180.825ZM1191.58 567.052V455.21H1142.84C1142.71 454.735 1142.58 454.253 1142.43 453.77C1142.57 454.253 1142.69 454.735 1142.83 455.21H952.616V536.094C954.422 537.414 956.205 538.801 957.973 540.211C959.879 541.72 961.761 543.311 963.651 544.872L965.557 546.426C966.468 547.18 967.386 547.934 968.312 548.643C970.149 550.111 972.003 551.559 973.875 552.987C974.801 553.741 975.75 554.42 976.692 555.129C991.635 566.388 1007.4 576.549 1023.86 585.529C1027.54 587.54 1031.27 589.503 1035.02 591.419C1037.52 592.678 1040.04 593.93 1042.57 595.144C1046.36 596.969 1050.19 598.729 1054.04 600.423C1089.6 616.154 1127.21 626.948 1165.77 632.498C1174.34 633.745 1182.94 634.725 1191.57 635.439V567.044H1192.34L1191.58 567.052ZM952.616 234.733V344.44H1191.61V234.733H952.616ZM952.616 347.66V451.99H1191.61V347.66H952.616ZM1210.16 174.204V209.031L1239.35 177.462C1229.68 175.923 1219.95 174.825 1210.16 174.166V174.204ZM1210.16 347.698V451.99H1442.61V347.66L1210.16 347.698ZM1441.76 575.333L1442.58 455.21H1210.16V636.638C1225.13 637.258 1240.13 637.082 1255.08 636.11V636.11H1255.34C1262.48 635.668 1269.59 635.024 1276.67 634.179H1276.83C1314.58 629.85 1351.5 620.143 1386.42 605.363L1441.76 575.333ZM1487.43 364.84C1486.56 362.811 1485.65 360.797 1484.72 358.807C1482.99 355.036 1481.16 351.371 1479.28 347.705H1461.15V451.99H1507C1506.98 422.457 1499.39 392.291 1487.46 364.802L1487.43 364.84ZM1461.15 455.248V558.568C1474.06 546.365 1484.98 532.406 1492.84 516.448C1502.29 497.232 1506.61 476.425 1506.96 455.233L1461.15 455.248ZM1461.15 317.298V344.447H1477.58C1472.61 335.101 1467.13 326.026 1461.17 317.26L1461.15 317.298ZM1303.5 194.672C1302.29 194.219 1301.08 193.759 1299.86 193.314C1287.03 188.644 1273.92 184.76 1260.6 181.685L1215.92 230.004L1215.07 230.901L1215.64 231.52H1374.65C1352.5 216.497 1328.63 204.116 1303.52 194.634L1303.5 194.672ZM1379.31 234.77H1213.42L1210.16 237.712V344.44H1238.74H1238.78H1442.64V292.742C1424.2 270.763 1402.91 251.26 1379.33 234.733L1379.31 234.77Z" fill="#053C61"/>
<path opacity="0.1" d="M748.555 295.42L748.631 348.829H671.209C671.186 349.146 671.209 348.513 671.209 348.829C671.278 347.962 671.347 347.095 671.423 346.235C671.508 345.225 671.599 344.206 671.699 343.219C671.798 342.231 671.905 341.024 672.02 339.93C672.135 338.837 672.242 337.728 672.372 336.635C672.502 335.541 672.617 334.448 672.755 333.362C672.893 332.276 673.015 331.175 673.16 330.089C673.275 329.184 673.398 328.286 673.52 327.381C673.696 326.107 673.88 324.825 674.079 323.558C674.079 323.369 674.132 323.173 674.163 322.992C675.56 313.717 677.463 304.523 679.864 295.45L748.555 295.42Z" fill="#CCD4DA"/>
<path opacity="0.1" d="M1213.89 83H1291.06V279.359H1219.54C1219.35 281.375 1219.17 283.405 1218.97 285.435H1291.06V443.794C1290.93 443.723 1290.82 443.638 1290.7 443.552C1288.66 442.048 1286.64 440.458 1284.62 438.755L1283.32 437.662C1281.29 435.873 1279.27 433.98 1277.24 431.984C1276.53 431.288 1275.83 430.564 1275.13 429.826C1263.87 418.054 1253.64 403.138 1244.8 385.594C1244.54 385.126 1244.3 384.629 1244.04 384.175C1242.81 381.677 1241.6 379.15 1240.43 376.566L1239.14 373.727C1237.75 370.562 1236.41 367.311 1235.11 364.018C1234.92 363.535 1234.74 363.053 1234.54 362.598C1229.26 348.911 1224.86 334.09 1221.47 318.452C1221.36 317.984 1221.27 317.473 1221.17 317.033C1220.12 312.017 1219.2 306.954 1218.39 301.844C1218.04 299.701 1217.71 297.585 1217.42 295.357C1217.31 294.704 1217.22 294.065 1217.14 293.426C1212.82 261.956 1212.31 229.265 1212.31 196.801C1212.31 193.011 1212.31 189.207 1212.31 185.445C1212.31 172.315 1212.39 159.099 1212.52 145.898C1212.52 142.477 1212.59 139.07 1212.63 135.635C1212.74 126.919 1212.89 118.204 1213.09 109.488C1213.13 107.06 1213.19 104.647 1213.26 102.234C1213.26 100.843 1213.3 99.452 1213.37 98.0609C1213.56 93.0075 1213.71 87.9966 1213.89 83Z" fill="#FAFAFA"/>
<path opacity="0.1" d="M674.704 309.63V321.9H749.188V309.63H674.704ZM682.127 321.131H676.051V310.384H682.173L682.127 321.131ZM689.542 321.131H683.42V310.384H689.542V321.131ZM696.943 321.131H690.82V310.384H696.943V321.131ZM704.358 321.131H698.244V310.384H704.366L704.358 321.131ZM711.766 321.131H705.644V310.384H711.766V321.131ZM719.181 321.131H713.059V310.384H719.181V321.131ZM726.597 321.131H720.475V310.384H726.597V321.131ZM734.005 321.131H727.882V310.384H734.005V321.131ZM741.412 321.131H735.29V310.384H741.412V321.131ZM748.82 321.131H742.698V310.384H748.82V321.131Z" fill="#E3EAEF"/>
<path opacity="0.1" d="M675.01 346.657V358.927H749.493V346.657H675.01ZM682.433 358.15H676.357V347.434H682.479L682.433 358.15ZM689.848 358.15H683.726V347.434H689.848V358.15ZM697.248 358.15H691.126V347.434H697.248V358.15ZM704.664 358.15H698.549V347.434H704.671L704.664 358.15ZM712.072 358.15H705.949V347.434H712.072V358.15ZM719.487 358.15H713.365V347.434H719.487V358.15ZM726.903 358.15H720.78V347.434H726.903V358.15ZM734.31 358.15H728.188V347.434H734.31V358.15ZM741.718 358.15H735.596V347.434H741.718V358.15ZM749.126 358.15H743.004V347.434H749.126V358.15Z" fill="#053C61"/>
</svg>
