<svg width="126" height="127" viewBox="0 0 126 127" fill="none" xmlns="http://www.w3.org/2000/svg">
<path d="M67.6652 88.7357C67.51 87.5659 66.897 86.4934 65.947 85.7291C64.997 84.9649 63.7786 84.5642 62.5317 84.6061C61.3945 84.5765 60.2798 84.9098 59.3674 85.5519C58.455 86.194 57.798 87.1077 57.5023 88.1458L52.4383 114.168C52.2987 114.827 52.229 115.496 52.2302 116.168C52.2302 118.775 53.3265 121.276 55.2779 123.12C57.2294 124.964 59.876 126 62.6358 126C65.3955 126 68.0423 124.964 69.9937 123.12C71.9451 121.276 73.0414 118.775 73.0414 116.168C73.0302 115.36 72.9137 114.556 72.6945 113.775L67.6652 88.7357ZM107.068 99.9117C106.532 99.4999 105.964 99.1274 105.368 98.7974L84.8344 85.4255C84.0561 84.8778 83.0999 84.6043 82.1309 84.6522C81.1619 84.7001 80.241 85.0664 79.5275 85.6877C78.8899 86.2192 78.4812 86.9534 78.3789 87.751C78.2766 88.5486 78.4878 89.3539 78.9725 90.0139L94.789 108.531C95.0952 108.965 95.4437 109.371 95.8296 109.744C97.386 111.015 99.3743 111.714 101.431 111.714C103.488 111.714 105.477 111.015 107.033 109.744C107.771 109.129 108.362 108.372 108.767 107.525C109.172 106.677 109.382 105.758 109.382 104.828C109.382 103.898 109.172 102.979 108.767 102.131C108.362 101.283 107.771 100.527 107.033 99.9117H107.068ZM120.942 80.8044L101.691 80.1489C101.113 80.0624 100.522 80.192 100.043 80.51C99.5639 80.8281 99.2346 81.3097 99.1247 81.8531C99.0527 82.3692 99.1633 82.8934 99.4394 83.3439C99.7154 83.7944 100.141 84.146 100.651 84.344L119.277 89.3256C121.982 89.8828 125 88.7029 125 86.0482C125 82.7708 123.994 81.0993 120.942 80.7716V80.8044ZM25.2797 84.344C25.7892 84.146 26.2152 83.7944 26.4912 83.3439C26.7672 82.8934 26.8779 82.3692 26.8059 81.8531C26.6881 81.3071 26.3517 80.8251 25.8671 80.5076C25.3825 80.1901 24.7869 80.0617 24.2045 80.1489L4.98879 80.8044C1.9018 81.1321 1 82.738 1 86.0482C1 88.6701 3.94823 89.8828 6.619 89.3256L25.245 84.3112L25.2797 84.344ZM40.9922 85.3928L20.4584 98.7319C19.8685 99.0544 19.3113 99.4274 18.7936 99.8462C18.0554 100.461 17.4643 101.218 17.0593 102.065C16.6544 102.913 16.445 103.832 16.445 104.762C16.445 105.692 16.6544 106.612 17.0593 107.459C17.4643 108.307 18.0554 109.063 18.7936 109.678C20.3204 110.993 22.3119 111.722 24.3779 111.722C26.4438 111.722 28.4354 110.993 29.9623 109.678C30.3761 109.333 30.7379 108.936 31.0375 108.499L46.854 90.0466C47.3387 89.3866 47.55 88.5814 47.4477 87.7838C47.3454 86.9863 46.9366 86.252 46.299 85.7205C45.5817 85.0615 44.6387 84.6663 43.6402 84.6062C42.6418 84.5461 41.6534 84.8251 40.8534 85.3928H40.9922ZM62.9826 -1C62.9826 -1 72.0008 8.83225 72.0008 17.1241C72.1533 18.9181 71.9132 20.7225 71.2954 22.425C70.6777 24.1275 69.6957 25.6916 68.4104 27.0199C67.1251 28.3481 65.5641 29.412 63.8247 30.1454C62.0853 30.8787 60.2047 31.2659 58.3001 31.2826C56.3529 31.2788 54.4261 30.9072 52.6332 30.1894C50.8402 29.4716 49.2173 28.4221 47.8599 27.1029C46.5025 25.7837 45.4381 24.2212 44.7292 22.5075C44.0204 20.7938 43.6815 18.9634 43.7323 17.1241V15.1904C35.3144 24.8539 30.7267 36.989 30.76 49.505C30.76 57.554 34.1439 65.2734 40.1673 70.9649C46.1907 76.6565 54.3602 79.8539 62.8786 79.8539C71.397 79.8539 79.5664 76.6565 85.5898 70.9649C91.6132 65.2734 94.9972 57.554 94.9972 49.505C94.9972 29.0539 84.3141 5.096 62.8439 -1H62.9826ZM61.838 68.4813C58.4494 68.5163 55.1844 67.28 52.7591 65.0436C50.3338 62.8072 48.9461 59.7532 48.9004 56.5514C48.8927 53.6097 50.0418 50.7703 52.1249 48.584C54.2079 46.3978 57.0762 45.0207 60.1731 44.72C67.3988 43.604 73.9793 40.1238 78.7644 34.8878C80.338 39.8645 81.1327 45.032 81.1231 50.226C81.1231 55.0589 79.0912 59.6939 75.4746 63.1113C71.8579 66.5286 66.9527 68.4485 61.838 68.4485V68.4813Z" fill="white" stroke="#0E8146" stroke-miterlimit="10"/>
</svg>
