<svg width="39" height="50" viewBox="0 0 39 50" fill="none" xmlns="http://www.w3.org/2000/svg">
<g clip-path="url(#clip0)">
<path d="M18.3269 0.978943C17.9946 0.570017 17.4651 0.581806 17.1442 1.00512C16.8312 1.41814 16.8312 2.07284 17.1442 2.48576L34.9524 25.1786L17.1425 47.8693C16.8103 48.2782 16.8011 48.9528 17.122 49.3762C17.4429 49.7995 17.9724 49.8112 18.3047 49.4024C18.3116 49.3938 18.3185 49.3851 18.3252 49.3762L36.7256 25.931C37.0521 25.5149 37.0521 24.8403 36.7256 24.4241L18.3269 0.978943Z" fill="#009688"/>
<path d="M21.6725 24.4242L3.27214 0.978943C2.93991 0.570017 2.4104 0.581806 2.08947 1.00512C1.77646 1.41814 1.77646 2.07284 2.08947 2.48586L19.8977 25.1787L2.08782 47.8693C1.7556 48.2782 1.74642 48.9528 2.06728 49.3762C2.38821 49.7995 2.91764 49.8112 3.24994 49.4024C3.25692 49.3938 3.26375 49.3851 3.27049 49.3762L21.6708 25.931C21.9977 25.5155 21.9985 24.8409 21.6725 24.4242Z" fill="#009688"/>
<path d="M17.7349 49.6895C17.273 49.6906 16.8978 49.2142 16.897 48.6257C16.8966 48.3419 16.985 48.0697 17.1427 47.8693L34.9526 25.1785L17.1427 2.48793C16.8218 2.06462 16.831 1.38994 17.1633 0.981011C17.4874 0.582176 18.0012 0.582176 18.3253 0.981011L36.7257 24.4262C37.0522 24.8424 37.0522 25.5169 36.7257 25.9332L18.3254 49.3783C18.1686 49.5776 17.9563 49.6895 17.7349 49.6895Z" fill="#0E8146"/>
<path d="M2.68018 49.6898C2.21826 49.6909 1.84315 49.2145 1.84229 48.626C1.84189 48.3422 1.93034 48.07 2.08802 47.8696L19.8979 25.1789L2.08802 2.48824C1.76097 2.07153 1.76097 1.39594 2.08802 0.979226C2.41508 0.562507 2.94529 0.562507 3.27234 0.979226L21.6727 24.4245C21.9992 24.8406 21.9992 25.5152 21.6727 25.9314L3.27234 49.3765C3.11544 49.577 2.9024 49.6898 2.68018 49.6898Z" fill="#0E8146"/>
</g>
<rect x="0.259668" y="0.766687" width="38.2839" height="48.8351" stroke="#C0C0C0" stroke-width="0.2"/>
<defs>
<clipPath id="clip0">
</clipPath>
</defs>
</svg>
