<svg width="26" height="45" viewBox="0 0 26 45" fill="none" xmlns="http://www.w3.org/2000/svg">
<path d="M16.3221 26.1877C16.0046 26.7171 15.7941 27.298 15.6042 27.8642C15.5753 27.9503 15.547 28.0359 15.5188 28.1209C15.3605 28.599 15.2082 29.0588 15.0075 29.4725C14.7723 29.9576 14.4745 30.3705 14.0324 30.6634C13.5906 30.9561 12.9951 31.1354 12.1534 31.1354C11.0736 31.1354 10.2722 30.634 9.73752 29.8993C9.2008 29.1619 8.93299 28.1882 8.93299 27.2545C8.93299 23.765 11.1665 21.6221 13.438 19.6065C13.5482 19.5087 13.6585 19.4112 13.7687 19.3138C14.7895 18.4114 15.7962 17.5215 16.5705 16.5385C17.4308 15.4464 18.0103 14.2323 18.0103 12.7462C18.0103 11.123 17.5386 9.81797 16.6608 8.91835C15.7828 8.01841 14.5101 7.53615 12.9321 7.53615C11.2497 7.53615 10.1407 8.034 9.35035 8.78947C8.56433 9.54079 8.10215 10.5392 7.69681 11.5199C7.64008 11.6572 7.58451 11.7939 7.52937 11.9296C7.18739 12.7712 6.86205 13.5718 6.38197 14.1934C5.83183 14.9057 5.0794 15.3801 3.85478 15.3801C2.96983 15.3801 2.15261 15.0761 1.55701 14.4877C0.962075 13.9 0.580469 13.0209 0.580469 11.8555V11.8555C0.579864 8.97451 2.01544 6.25108 4.24247 4.24576C6.46934 2.2406 9.48113 0.95965 12.6199 0.95965C15.9244 0.95965 19.1956 1.83166 21.6382 3.73812C24.0773 5.64189 25.6988 8.5835 25.6988 12.7448C25.6988 16.5708 23.7873 19.2218 21.6567 21.2708C20.8098 22.0853 19.931 22.8023 19.1238 23.4608C18.9144 23.6316 18.7099 23.7984 18.512 23.962C17.5562 24.7522 16.7475 25.4722 16.3221 26.1877ZM16.3221 26.1877C16.3222 26.1876 16.3222 26.1875 16.3223 26.1875L16.4079 26.2388L16.3221 26.1878C16.3221 26.1878 16.3221 26.1878 16.3221 26.1877ZM12.3616 35.1942C14.6252 35.1942 16.5162 37.333 16.5162 39.97C16.5162 42.6072 14.6288 44.7459 12.3616 44.7459C10.0942 44.7459 8.20572 42.6099 8.20572 39.97C8.20572 37.3343 10.0943 35.1942 12.3616 35.1942Z" fill="#0E8146" stroke="#C0C0C0" stroke-width="0.2"/>
</svg>
