<svg width="48" height="45" viewBox="0 0 48 45" fill="none" xmlns="http://www.w3.org/2000/svg">
<path d="M35.5984 10.1149V10.2149H35.6984H46.2965C47.0113 10.2149 47.591 10.7949 47.591 11.5105V37.9342C47.591 41.7267 44.5079 44.8123 40.7186 44.8123H7.06496C3.27567 44.8123 0.192529 41.7267 0.192529 37.9342V1.83419C0.192529 1.11858 0.772192 0.538568 1.48702 0.538568H34.3039C35.0188 0.538568 35.5984 1.11858 35.5984 1.83419V10.1149ZM2.8815 3.1298H2.7815V3.2298V37.9342C2.7815 40.2979 4.7029 42.221 7.06496 42.221H34.3072H34.5074L34.3871 42.0609C33.6356 41.061 33.1605 39.8584 33.041 38.5833C33.0386 38.5577 33.0363 38.5386 33.0342 38.5207C33.0152 38.3584 33.0085 38.3008 33.0069 34.5468C33.006 32.5926 33.0065 29.6374 33.0073 25.1446C33.0082 20.0642 33.0094 13.0178 33.0094 3.2298V3.1298H32.9094H2.8815ZM35.6984 12.8061H35.5984V12.9061V37.9342C35.5984 40.2979 37.5198 42.221 39.8819 42.221H39.8837H39.8855H39.8873H39.8891H39.8909H39.8926H39.8944H39.8962H39.898H39.8998H39.9016H39.9033H39.9051H39.9069H39.9087H39.9104H39.9122H39.914H39.9157H39.9175H39.9192H39.921H39.9228H39.9245H39.9263H39.928H39.9298H39.9315H39.9332H39.935H39.9367H39.9385H39.9402H39.9419H39.9437H39.9454H39.9471H39.9489H39.9506H39.9523H39.954H39.9558H39.9575H39.9592H39.9609H39.9626H39.9643H39.9661H39.9678H39.9695H39.9712H39.9729H39.9746H39.9763H39.978H39.9797H39.9814H39.9831H39.9848H39.9865H39.9881H39.9898H39.9915H39.9932H39.9949H39.9966H39.9983H39.9999H40.0016H40.0033H40.005H40.0066H40.0083H40.01H40.0116H40.0133H40.015H40.0166H40.0183H40.02H40.0216H40.0233H40.0249H40.0266H40.0283H40.0299H40.0316H40.0332H40.0349H40.0365H40.0382H40.0398H40.0414H40.0431H40.0447H40.0464H40.048H40.0496H40.0513H40.0529H40.0546H40.0562H40.0578H40.0594H40.0611H40.0627H40.0643H40.066H40.0676H40.0692H40.0708H40.0724H40.0741H40.0757H40.0773H40.0789H40.0805H40.0821H40.0838H40.0854H40.087H40.0886H40.0902H40.0918H40.0934H40.095H40.0966H40.0982H40.0998H40.1014H40.103H40.1046H40.1062H40.1078H40.1094H40.111H40.1126H40.1142H40.1158H40.1174H40.119H40.1206H40.1222H40.1238H40.1253H40.1269H40.1285H40.1301H40.1317H40.1333H40.1348H40.1364H40.138H40.1396H40.1412H40.1427H40.1443H40.1459H40.1475H40.1491H40.1506H40.1522H40.1538H40.1553H40.1569H40.1585H40.1601H40.1616H40.1632H40.1648H40.1663H40.1679H40.1695H40.171H40.1726H40.1742H40.1757H40.1773H40.1789H40.1804H40.182H40.1835H40.1851H40.1867H40.1882H40.1898H40.1913H40.1929H40.1945H40.196H40.1976H40.1991H40.2007H40.2022H40.2038H40.2053H40.2069H40.2085H40.21H40.2116H40.2131H40.2147H40.2162H40.2178H40.2193H40.2209H40.2224H40.224H40.2255H40.2271H40.2286H40.2302H40.2317H40.2333H40.2348H40.2363H40.2379H40.2394H40.241H40.2425H40.2441H40.2456H40.2472H40.2487H40.2503H40.2518H40.2533H40.2549H40.2564H40.258H40.2595H40.2611H40.2626H40.2642H40.2657H40.2672H40.2688H40.2703H40.2719H40.2734H40.275H40.2765H40.278H40.2796H40.2811H40.2827H40.2842H40.2858H40.2873H40.2888H40.2904H40.2919H40.2935H40.295H40.2966H40.2981H40.2996H40.3012H40.3027H40.3043H40.3058H40.3074H40.3089H40.3104H40.312H40.3135H40.3151H40.3166H40.3182H40.3197H40.3213H40.3228H40.3243H40.3259H40.3274H40.329H40.3305H40.3321H40.3336H40.3352H40.3367H40.3383H40.3398H40.3414H40.3429H40.3444H40.346H40.3475H40.3491H40.3506H40.3522H40.3537H40.3553H40.3568H40.3584H40.36H40.3615H40.3631H40.3646H40.3662H40.3677H40.3693H40.3708H40.3724H40.3739H40.3755H40.377H40.3786H40.3802H40.3817H40.3833H40.3848H40.3864H40.388H40.3895H40.3911H40.3926H40.3942H40.3958H40.3973H40.3989H40.4005H40.402H40.4036H40.4052H40.4067H40.4083H40.4099H40.4114H40.413H40.4146H40.4161H40.4177H40.4193H40.4209H40.4224H40.424H40.4256H40.4272H40.4287H40.4303H40.4319H40.4335H40.4351H40.4366H40.4382H40.4398H40.4414H40.443H40.4446H40.4462H40.4477H40.4493H40.4509H40.4525H40.4541H40.4557H40.4573H40.4589H40.4605H40.4621H40.4637H40.4653H40.4669H40.4685H40.4701H40.4717H40.4733H40.4749H40.4765H40.4781H40.4797H40.4813H40.4829H40.4845H40.4861H40.4877H40.4893H40.4909H40.4926H40.4942H40.4958H40.4974H40.499H40.5006H40.5023H40.5039H40.5055H40.5071H40.5088H40.5104H40.512H40.5137H40.5153H40.5169H40.5186H40.5202H40.5218H40.5235H40.5251H40.5267H40.5284H40.53H40.5317H40.5333H40.535H40.5366H40.5382H40.5399H40.5415H40.5432H40.5449H40.5465H40.5482H40.5498H40.5515H40.5531H40.5548H40.5565H40.5581H40.5598H40.5615H40.5631H40.5648H40.5665H40.5682H40.5698H40.5715H40.5732H40.5749H40.5766H40.5782H40.5799H40.5816H40.5833H40.585H40.5867H40.5884H40.5901H40.5918H40.5935H40.5951H40.5969H40.5986H40.6003H40.602H40.6037H40.6054H40.6071H40.6088H40.6105H40.6122H40.6139H40.6157H40.6174H40.6191H40.6208H40.6226H40.6243H40.626H40.6277H40.6295H40.6312H40.6329H40.6347H40.6364H40.6382H40.6399H40.6417H40.6434H40.6452H40.6469H40.6487H40.6504H40.6522H40.6539H40.6557H40.6575H40.6592H40.661H40.6628H40.6645H40.6663H40.6681H40.6698H40.6716H40.6734H40.6752H40.677H40.6788H40.6805H40.6823H40.6841H40.6859H40.6877H40.6895H40.6913H40.6931H40.6949H40.6967H40.6985H40.7003H40.7022H40.704H40.7058H40.7076H40.7094H40.7113H40.7131H40.7149H40.7167H40.7186C43.0806 42.221 45.002 40.2979 45.002 37.9342V12.9061V12.8061H44.902H35.6984Z" fill="#0E8146" stroke="#C0C0C0" stroke-width="0.2"/>
<path d="M7.52986 7.23754H28.3542C29.069 7.23754 29.6487 7.81756 29.6487 8.53316C29.6487 9.24876 29.069 9.82878 28.3542 9.82878H7.52986C6.81504 9.82878 6.23538 9.24876 6.23538 8.53316C6.23538 7.81756 6.81504 7.23754 7.52986 7.23754Z" fill="#0E8146" stroke="#C0C0C0" stroke-width="0.2"/>
<path d="M7.52986 13.1921H28.3542C29.069 13.1921 29.6487 13.7721 29.6487 14.4878C29.6487 15.2034 29.069 15.7834 28.3542 15.7834H7.52986C6.81504 15.7834 6.23538 15.2034 6.23538 14.4878C6.23538 13.7721 6.81504 13.1921 7.52986 13.1921Z" fill="#0E8146" stroke="#C0C0C0" stroke-width="0.2"/>
<path d="M7.52986 35.522H28.3542C29.069 35.522 29.6487 36.102 29.6487 36.8176C29.6487 37.5332 29.069 38.1133 28.3542 38.1133H7.52986C6.81504 38.1133 6.23538 37.5332 6.23538 36.8176C6.23538 36.102 6.81504 35.522 7.52986 35.522Z" fill="#0E8146" stroke="#C0C0C0" stroke-width="0.2"/>
<path d="M26.9597 29.5674H27.0597V29.4674V21.838V21.738H26.9597H19.3365H19.2365V21.838V29.4674V29.5674H19.3365H26.9597ZM17.942 19.1468H28.3541C29.069 19.1468 29.6486 19.7268 29.6486 20.4424V30.863C29.6486 31.5786 29.069 32.1587 28.3541 32.1587H17.942C17.2271 32.1587 16.6475 31.5786 16.6475 30.863V20.4424C16.6475 19.7268 17.2271 19.1468 17.942 19.1468Z" fill="#0E8146" stroke="#C0C0C0" stroke-width="0.2"/>
<path d="M11.9922 23.971H7.52986C6.81504 23.971 6.23538 23.391 6.23538 22.6754C6.23538 21.9598 6.81504 21.3798 7.52986 21.3798H11.9922C12.707 21.3798 13.2867 21.9598 13.2867 22.6754C13.2867 23.391 12.707 23.971 11.9922 23.971Z" fill="#0E8146" stroke="#C0C0C0" stroke-width="0.2"/>
<path d="M11.9922 29.9257H7.52986C6.81504 29.9257 6.23538 29.3457 6.23538 28.6301C6.23538 27.9145 6.81504 27.3344 7.52986 27.3344H11.9922C12.707 27.3344 13.2867 27.9145 13.2867 28.6301C13.2867 29.3457 12.707 29.9257 11.9922 29.9257Z" fill="#0E8146" stroke="#C0C0C0" stroke-width="0.2"/>
</svg>
