<svg width="50" height="51" viewBox="0 0 50 51" fill="none" xmlns="http://www.w3.org/2000/svg">
<path d="M20.2369 50.571L17.8645 48.1425C17.4233 47.3949 16.9915 46.4127 16.9915 45.4384V45.4369V45.4354V45.434V45.4325V45.431V45.4295V45.4281V45.4266V45.4251V45.4236V45.4222V45.4207V45.4192V45.4178V45.4163V45.4148V45.4133V45.4119V45.4104V45.4089V45.4074V45.406V45.4045V45.403V45.4016V45.4001V45.3986V45.3971V45.3957V45.3942V45.3927V45.3913V45.3898V45.3883V45.3868V45.3854V45.3839V45.3824V45.3809V45.3795V45.378V45.3765V45.375V45.3736V45.3721V45.3706V45.3692V45.3677V45.3662V45.3647V45.3633V45.3618V45.3603V45.3589V45.3574V45.3559V45.3544V45.353V45.3515V45.35V45.3485V45.3471V45.3456V45.3441V45.3427V45.3412V45.3397V45.3382V45.3368V45.3353V45.3338V45.3323V45.3309V45.3294V45.3279V45.3265V45.325V45.3235V45.322V45.3206V45.3191V45.3176V45.3161V45.3147V45.3132V45.3117V45.3103V45.3088V45.3073V45.3058V45.3044V45.3029V45.3014V45.2999V45.2985V45.297V45.2955V45.2941V45.2926V45.2911V45.2896V45.2882V45.2867V45.2852V45.2837V45.2823V45.2808V45.2793V45.2779V45.2764V45.2749V45.2734V45.272V45.2705V45.269V45.2675V45.2661V45.2646V45.2631V45.2616V45.2602V45.2587V45.2572V45.2558V45.2543V45.2528V45.2513V45.2499V45.2484V45.2469V45.2454V45.244V45.2425V45.241V45.2396V45.2381V45.2366V45.2351V45.2337V45.2322V45.2307V45.2292V45.2278V45.2263V45.2248V45.2234V45.2219V45.2204V45.2189V45.2175V45.216V45.2145V45.213V45.2116V45.2101V45.2086V45.2071V45.2057V45.2042V45.2027V45.2013V45.1998V45.1983V45.1968V45.1954V45.1939V45.1924V45.1909V45.1895V45.188V45.1865V45.1851V45.1836V45.1821V45.1806V45.1792V45.1777V45.1762V45.1747V45.1733V45.1718V45.1703V45.1688V45.1674V45.1659V45.1644V45.163V45.1615V45.16V45.1585V45.1571V45.1556V45.1541V45.1526V45.1512V45.1497V45.1482V45.1468V45.1453V45.1438V45.1423V45.1409V45.1394V45.1379V45.1364V45.135V45.1335V45.132V45.1306V45.1291V45.1276V45.1261V45.1247V45.1232V45.1217V45.1202V45.1188V45.1173V45.1158V45.1143V45.1129V45.1114V45.1099V45.1085V45.107V45.1055V45.104V45.1026V45.1011V45.0996V45.0981V45.0967V45.0952V45.0937V45.0923V45.0908V45.0893V45.0878V45.0864V45.0849V45.0834V45.0819V45.0805V45.079V45.0775V45.076V45.0746V45.0731V45.0716V45.0702V45.0687V45.0672V45.0657V45.0643V45.0628V45.0613V45.0598V45.0584V45.0569V45.0554V45.0539V45.0525V45.051V45.0495V45.0481V45.0466V45.0451V45.0436V45.0422V45.0407V45.0392V45.0377V45.0363V45.0348V45.0333V45.0318V45.0304V45.0289V45.0274V45.026V45.0245V45.023V45.0215V45.0201V45.0186V45.0171V45.0156V45.0142V45.0127V45.0112V45.0098V45.0083V45.0068V45.0053V45.0039V45.0024V45.0009V44.9994V44.998V44.9965V44.995V44.9935V44.9921V44.9906V44.9891V44.9877V44.9862V44.9847V44.9832V44.9818V44.9803V44.9788V44.9773V44.9759V44.9744V44.9729V44.9714V44.97V44.9685V44.967V44.9656V44.9641V44.9626V44.9611V44.9597V44.9582V44.9567V44.9552V44.9538V44.9523V44.9508V44.9493V44.9479V44.9464V44.9449V44.9435V44.942V44.9405V44.939V44.9376V44.9361V44.9346V44.9331V44.9317V44.9302V44.9287V44.9272V44.9258V44.9243V44.9228V44.9214V44.9199V44.9184V44.9169V44.9155V44.914V44.9125V44.911V44.9096V44.9081V44.9066V44.9052V44.9037V44.9022V44.9007V44.8993V44.8978V44.8963V44.8948V44.8934V44.8919V44.8904V44.8889V44.8875V44.886V44.8845V44.8831V44.8816V44.8801V44.8786V44.8772V44.8757V44.8742V44.8727V44.8713V44.8698V44.8683V44.8668V44.8654V44.8639V44.8624V44.861V44.8595V44.858V44.8565V44.8551V44.8536V44.8521V44.8506V44.8492V44.8477V44.8462V44.8448V44.8433V44.8418V44.8403V44.8389V44.8374V44.8359V44.8344V44.833V44.8315V44.83V44.8285V44.8271V44.8256V44.8241V44.8227V44.8212V44.8197V44.8182V44.8168V44.8153V44.8138V44.8123V44.8109V44.8094V44.8079V44.8064V44.805V44.8035V44.802V44.8006V44.7991V44.7976V44.7961V44.7947V44.7932V44.7917V44.7902V44.7888V44.7873V44.7858V44.7844V44.7829V44.7814V44.7799V44.7785V44.777V44.7755V44.774V44.7726V44.7711V44.7696V44.7681V44.7667V44.7652V44.7637V44.7623V44.7608V44.7593V44.7578V44.7564V44.7549V44.7534V44.7519V44.7505V44.749V44.7475V44.7461V44.7446V44.7431V44.7416V44.7402V44.7387V44.7372V44.7357V44.7343V44.7328V44.7313V44.7298V44.7284V44.7269V44.7254V44.724V44.7225V44.721V44.7195V44.7181V44.7166V44.7151V44.7136V44.7122V44.7107V44.7092V44.7077V44.7063V44.7048V44.7033V44.7019V44.7004V44.6989V44.6974V44.696V44.6945V44.6937L19.2223 33.1389L19.2453 33.02H19.1241H5.05862C2.66879 33.02 0.693384 30.8137 0.693384 28.0921V27.8407V23.0642C0.693384 22.3327 0.908545 21.8466 1.1313 21.345L1.13146 21.3451L1.13353 21.3395L7.83122 3.49089C7.83125 3.4908 7.83128 3.49072 7.83131 3.49064C8.48936 1.76197 10.0197 0.538568 11.7565 0.538568H31.85C34.2398 0.538568 36.2153 2.74487 36.2153 5.46648V30.606C36.2153 31.8393 35.7772 33.0724 34.9009 34.0592L20.2369 50.571ZM49.611 30.506H40.8805V0.538568H49.611V30.506Z" fill="#0E8146" stroke="#C0C0C0" stroke-width="0.2"/>
</svg>
