<svg width="46" height="51" viewBox="0 0 46 51" fill="none" xmlns="http://www.w3.org/2000/svg">
<path d="M0.470972 50.8513V20.6699H8.55695V50.8513H0.470972Z" fill="#0E8146" stroke="#C0C0C0" stroke-width="0.2"/>
<path d="M27.6529 0.473207L29.7812 3.05012C29.7813 3.05017 29.7813 3.05021 29.7814 3.05026C30.3253 3.71508 30.6701 4.64178 30.6701 5.67044C30.6701 5.94146 30.6399 6.20135 30.599 6.45131C30.599 6.45147 30.5989 6.45163 30.5989 6.45179L28.6208 18.0213L28.6008 18.1381H28.7194H41.8009C44.0155 18.1381 45.8415 20.3368 45.8439 23.0963L45.8238 23.2809L45.8193 23.3226L45.8439 23.3527V28.1653C45.8439 28.7986 45.7323 29.4081 45.5487 29.9817C45.5486 29.9821 45.5485 29.9826 45.5483 29.983L39.3036 47.8295L39.3034 47.83C38.6919 49.6114 37.2521 50.8513 35.5865 50.8513H16.943C14.7269 50.8513 12.8999 48.6499 12.8999 45.8877V20.57C12.8999 19.1996 13.3587 17.9562 14.0893 17.0505C14.0894 17.0504 14.0894 17.0504 14.0895 17.0503L27.6529 0.473207Z" fill="#0E8146" stroke="#C0C0C0" stroke-width="0.2"/>
</svg>
