<svg width="43" height="47" viewBox="0 0 43 47" fill="none" xmlns="http://www.w3.org/2000/svg">
<path d="M6.11376 36.4905V36.3908L6.01415 36.3905C2.86793 36.378 0.286768 33.3851 0.286768 29.6743V7.67582C0.286768 3.95777 2.8792 0.95965 6.03452 0.95965H36.8738C40.0291 0.95965 42.6216 3.95777 42.6216 7.67582V29.6743C42.6216 33.3932 40.0291 36.3914 36.8738 36.3914H18.3212H18.2857L18.2582 36.4137L6.11376 46.2638V36.4905ZM31.3371 26.5246H31.4371V26.4246V23.5196V23.4196H31.3371H11.5713H11.4713V23.5196V26.4246V26.5246H11.5713H31.3371ZM31.3371 20.3273H31.4371V20.2273V17.3223V17.2223H31.3371H11.5713H11.4713V17.3223V20.2273V20.3273H11.5713H31.3371ZM31.3371 14.1299H31.4371V14.0299V11.1249V11.0249H31.3371H11.5713H11.4713V11.1249V14.0299V14.1299H11.5713H31.3371Z" fill="#0E8146" stroke="#C0C0C0" stroke-width="0.2"/>
</svg>
